# xmcd CD database file
#
# Track frame offsets:
#	150
#	25978
#	52938
#	77953
#	103753
#	121595
#	144891
#	171735
#	187600
#	232338
#	257885
#	279050
#
# Disc length: 4105 seconds
#
# Revision: 0
# Processed by: cddbd v1.5PL3 Copyright (c) Steve Scherf et al.
# Submitted via: CDex 1.51
#
DISCID=9d10070c
DTITLE=Richie Zellon - Cafe Con Leche
DYEAR=1993
DGENRE=Jazz
TTITLE0=Latitudes
TTITLE1=Parque De Las Leyendas
TTITLE2=Cumbiacao
TTITLE3=Corazon Norteno
TTITLE4=Cafe Con Leche
TTITLE5=Landologia
TTITLE6=Piazzolesque
TTITLE7=La Prima De Estela
TTITLE8=Barbara
TTITLE9=Scrapple From The Apple
TTITLE10=Senora Chabuca
TTITLE11=Jarana
EXTD=YEAR: 1993
EXTT0=
EXTT1=
EXTT2=
EXTT3=
EXTT4=
EXTT5=
EXTT6=
EXTT7=
EXTT8=
EXTT9=
EXTT10=
EXTT11=
PLAYORDER=
